<svg xmlns="http://www.w3.org/2000/svg" viewBox="0 0 37 33" width="37" height="33">
	<style>
		tspan { white-space:pre }
		.shp0 { fill: #d8d8d8 } 
	</style>
	<path id="Basket" class="shp0" d="M33 10L27.9 10C27.87 9.9 27.83 9.8 27.77 9.71L22.77 1.71C22.51 1.28 22.04 1 21.5 1C20.67 1 20 1.67 20 2.5C20 2.79 20.08 3.06 20.23 3.29L24.42 10L11.58 10L15.77 3.29C15.92 3.06 16 2.79 16 2.5C16 1.67 15.33 1 14.5 1C13.96 1 13.49 1.28 13.23 1.71L8.23 9.71C8.17 9.8 8.13 9.9 8.1 10L3 10C1.34 10 0 11.34 0 13L0 15C0 16.42 0.99 17.6 2.32 17.91L6.12 30.85C6.49 32.09 7.64 33 9 33L27 33C28.36 33 29.51 32.09 29.88 30.85L33.68 17.91C35.01 17.6 36 16.42 36 15L36 13C36 11.34 34.66 10 33 10ZM3 13L33 13L33 15L3 15L3 13ZM27 30L9 30L5.47 18L30.53 18L27 30Z" />
</svg>