<svg xmlns="http://www.w3.org/2000/svg" viewBox="0 0 27 32" width="27" height="32">
	<style>
		tspan { white-space:pre }
		.shp0 { fill: #d8d8d8 } 
	</style>
	<path id="Home" class="shp0" d="M14 3.74L24 13.74L24 29L19 29L19 22C19 20.9 18.1 20 17 20L11 20C9.9 20 9 20.9 9 22L9 29L4 29L4 13.74L14 3.74M14.88 0.38C14.4 -0.1 13.6 -0.1 13.12 0.38L1.59 11.91C1.21 12.29 1 12.8 1 13.33L1 30C1 31.1 1.9 32 3 32L10 32C11.1 32 12 31.1 12 30L12 23L16 23L16 30C16 31.1 16.9 32 18 32L25 32C26.1 32 27 31.1 27 30L27 13.33C27 12.8 26.79 12.29 26.41 11.91L14.88 0.38Z" />
</svg>