<svg xmlns="http://www.w3.org/2000/svg" viewBox="0 0 28 33" width="28" height="33">
	<style>
		tspan { white-space:pre }
		.shp0 { fill: #d8d8d8 } 
	</style>
	<path id="In" class="shp0" d="M25 33L2 33C0.9 33 0 32.1 0 31L0 10C0 8.9 0.9 8 2 8L7.5 8C8.33 8 9 8.67 9 9.5C9 10.33 8.33 11 7.5 11L3 11L3 30L24 30L24 11L19.5 11C18.67 11 18 10.33 18 9.5C18 8.67 18.67 8 19.5 8L25 8C26.1 8 27 8.9 27 10L27 31C27 32.1 26.1 33 25 33ZM20 17.5C20 17.91 19.83 18.29 19.56 18.56L14.56 23.56C14.29 23.83 13.91 24 13.5 24C13.09 24 12.71 23.83 12.44 23.56L7.44 18.56C7.17 18.29 7 17.91 7 17.5C7 16.67 7.67 16 8.5 16C8.91 16 9.29 16.17 9.56 16.44L12 18.88L12 2.5C12 1.67 12.67 1 13.5 1C14.33 1 15 1.67 15 2.5L15 18.88L17.44 16.44C17.71 16.17 18.09 16 18.5 16C19.33 16 20 16.67 20 17.5Z" />
</svg>