<svg xmlns="http://www.w3.org/2000/svg" viewBox="0 0 33 33" width="33" height="33">
	<style>
		tspan { white-space:pre }
		.shp0 { fill: #d8d8d8 } 
	</style>
	<path id="Search" class="shp0" d="M21 1C14.37 1 9 6.37 9 13C9 15.77 9.95 18.32 11.53 20.35L1.44 30.44C1.15 30.73 1 31.12 1 31.5C1 31.88 1.15 32.27 1.44 32.56C1.73 32.85 2.12 33 2.5 33C2.88 33 3.27 32.85 3.56 32.56L13.65 22.47C15.68 24.05 18.23 25 21 25C27.63 25 33 19.63 33 13C33 6.37 27.63 1 21 1ZM21 22C16.04 22 12 17.96 12 13C12 8.04 16.04 4 21 4C25.96 4 30 8.04 30 13C30 17.96 25.96 22 21 22Z" />
</svg>